<svg xmlns:xlink="http://www.w3.org/1999/xlink" version="1.1" viewBox="0 0 1085 635" style="width: 100%; height: 100%; z-index: 5;"><rect height="100%" width="100%" x="0" y="0" fill="rgb(50, 50, 89)"></rect><g><g fill="rgb(255, 255, 255)" fill-rule="nonzero" transform="translate(200.72499999999997 191.3969649417472) scale(3.5028620849514667)"><svg xmlns="http://www.w3.org/2000/svg" fill="rgb(255, 255, 255)" xmlns:xlink="http://www.w3.org/1999/xlink" version="1.1" width="195.1404261493986" height="72" viewBox="24.706693850601425 72 195.1404261493986 72" style="width: 100%; height: 100%; z-index: 5;"><g><g fill="rgb(255, 255, 255)" fill-rule="nonzero" transform="translate(24.706693850601425 72) scale(0.7990566286157623)"><svg xmlns="http://www.w3.org/2000/svg" fill="rgb(255, 255, 255)" width="81.7129898071289" height="90.10625457763672" viewBox="3.9590609073638916 -0.10624980926513672 81.7129898071289 90.10625457763672"><path d="M19.3 25.6c-6.6 6.8-10 15.9-9.6 25.4.2 4.2 1.1 8.3 2.8 12.1l2.9-2.1c.8-.6 1.6-.3 1.8.8L18.7 75c.1 1-.6 1.6-1.5 1.1L5 70.7c-1-.4-1.1-1.3-.2-1.9l3.1-2.3C5.6 61.7 4.3 56.6 4 51.2c-.5-10.9 3.6-21.7 11.2-29.6 1.1-1.1 2.9-1.2 4.1-.1 1.1 1.1 1.1 3 0 4.1zm66.1 19.1c-.6-5.4-2.3-10.4-4.9-15l2.9-2.5c.8-.7.6-1.5-.4-1.9l-12.6-4.4c-1-.3-1.6.2-1.4 1.2l2.5 13.1c.2 1 1 1.3 1.8.6l2.7-2.3c1.9 3.7 3.2 7.7 3.7 11.9 1.1 8.8-1.3 17.6-6.7 24.7-1 1.3-.7 3.1.6 4 .5.4 1.1.6 1.7.6.9 0 1.7-.4 2.3-1.1 6.2-8.4 9-18.6 7.8-28.9zM55 26c0-3-1.5-5.1-3.5-6.5s-4.2-2.4-6.2-3.3c-2-.9-3.2-2.1-3.3-3.7.1-2 1.3-3 3.5-3.1 2 .2 3.4.9 4.3 2 .6.6 1.2.9 1.9.9 1.5-.2 2.4-1.1 2.6-2.6 0-1-.6-1.9-1.6-2.8s-2-1.5-3.5-2c-.4.1-.2-.1-.2-.4V3.2c0-2.3-1.1-3.4-3.1-3.3S43 1 43 3.2v1.3c0 .3-.3.5-.7.6-3.8 1.4-5.9 4-5.9 7.8.1 3 1.2 5.2 3.3 6.5 2 1.3 4.1 2.4 6.1 3.3s3.1 2.2 3.3 3.8c-.2 2.2-1.5 3.2-3.9 3.2-1.4.2-3.1-.6-5.1-2.5-.5-.6-1.1-.9-1.8-1-.7 0-1.3.3-1.9.8-.6.5-.9 1.1-.9 1.8 0 .9.6 1.9 1.7 3s2.5 1.9 4.4 2.5c.4.1.5.3.5.6v1.4c0 2.2 1.1 3.3 3 3.4 1.9 0 3-1.2 3-3.4v-1.5c0-.3.1-.5.6-.6 2-.7 3.7-1.8 4.7-3.2.8-1.6 1.6-3.2 1.6-5zm4 40.8c0-2.1-1.7-3.8-3.8-3.8H35.8c-2.1 0-3.8 1.7-3.8 3.8v19.4c0 2.1 1.7 3.8 3.8 3.8h19.4c2.1 0 3.8-1.7 3.8-3.8V66.8zM37 69h16v15H37V69z"></path></svg></g><g fill="rgb(255, 255, 255)" transform="translate(108.848 133.488) scale(1)"><path fill-rule="nonzero" d="M11.304000-50.976000L1.152000-50.976000L10.440000-40.320000L16.200000-40.320000ZM22.379560-50.400000L22.379560 0L52.979560 0L52.979560-7.488000L30.299560-7.488000L30.299560-23.040000L48.011560-23.040000L48.011560-30.528000L30.299560-30.528000L30.299560-42.912000L52.259560-42.912000L52.259560-50.400000ZM60.887120-36.288000L60.887120 0L68.375120 0L68.375120-13.752000C68.375120-24.552000 72.335120-30.240000 76.871120-30.240000C80.039120-30.240000 82.199120-28.296000 82.199120-24.336000L82.199120 0L89.687120 0L89.687120-14.544000C89.687120-24.552000 93.719120-30.240000 98.183120-30.240000C101.351120-30.240000 103.511120-28.296000 103.511120-24.336000L103.511120 0L110.999120 0L110.999120-25.992000C110.999120-32.328000 107.255120-36.864000 100.631120-36.864000C95.951120-36.864000 91.847120-34.128000 89.327120-29.376000C88.247120-33.912000 84.215120-36.864000 79.319120-36.864000C74.927120-36.864000 71.327120-34.632000 68.375120-30.096000L68.375120-36.288000Z"></path></g></g></svg></g></g></svg>